<?xml version="1.0" standalone="no"?><!DOCTYPE svg PUBLIC "-//W3C//DTD SVG 1.1//EN" "http://www.w3.org/Graphics/SVG/1.1/DTD/svg11.dtd"><svg t="1729687675690" class="icon" viewBox="0 0 1024 1024" version="1.1" xmlns="http://www.w3.org/2000/svg" p-id="13511" xmlns:xlink="http://www.w3.org/1999/xlink" width="200" height="200"><path d="M167.1 711.4h691.7V176.2H167.1v535.2z m19.8-515.5h652.2v495.7H186.9V195.9z" p-id="13512"></path><path d="M888.5 97.9h-751c-21.7 0-39.5 17.8-39.5 39.5v612.7c0 21.7 17.8 39.5 39.5 39.5h247v39.6h-29.6c-21.8 0-39.5 17.7-39.5 39.5v19.8c0 21.8 17.7 39.5 39.5 39.5h316.2c21.8 0 39.5-17.7 39.5-39.5v-19.8c0-21.8-17.7-39.5-39.5-39.5h-29.6v-39.6h247c21.7 0 39.5-17.8 39.5-39.5V137.5c0-21.8-17.8-39.6-39.5-39.6zM671.1 868.7v19.8H354.9v-19.8h29.6v0.1h256.9v-0.1h29.7z m-247-39.5v-39.5H602v39.5H424.1z m464.3-79H641.5v-0.1h-257v0.1h-247s-0.1 0-0.1-0.1V137.6s0-0.1 0.1-0.1h750.9v612.7c0.1-0.1 0.1 0 0 0z" p-id="13513"></path></svg>