<?xml version="1.0" standalone="no"?><!DOCTYPE svg PUBLIC "-//W3C//DTD SVG 1.1//EN" "http://www.w3.org/Graphics/SVG/1.1/DTD/svg11.dtd"><svg t="1729687616232" class="icon" viewBox="0 0 1024 1024" version="1.1" xmlns="http://www.w3.org/2000/svg" p-id="11282" xmlns:xlink="http://www.w3.org/1999/xlink" width="200" height="200"><path d="M960 716.8V238.912L551.04 0v183.488l160.192 93.824c6.336 4.288 6.336 12.8 0 14.976L521.472 403.2c-6.336 4.288-12.608 2.112-16.832 0L314.88 292.288c-6.336-2.176-6.336-12.8 0-14.976l160.256-93.824V0L64 238.912V716.8v-2.112 2.112l156.032-91.712V437.312c0-6.4 8.384-10.624 12.608-8.512L422.4 539.712c6.336 4.288 8.448 8.576 8.448 14.976v221.824c0 6.4-8.448 10.688-12.672 8.576L257.984 691.2l-156.032 91.712L510.912 1024l409.024-238.912-156.032-91.776L603.776 787.2c-6.336 4.288-12.672 0-12.672-8.512V556.8c0-6.4 4.224-12.8 8.448-14.912l189.76-110.976c6.336-4.224 12.608 0 12.608 8.576V627.2L960 716.8z" fill="#000000" p-id="11283"></path></svg>